<svg width="66" height="48" viewBox="0 0 66 48" fill="none" xmlns="http://www.w3.org/2000/svg">
<path d="M17.25 23.65C19.45 24.55 21.15 26 22.35 28C23.65 29.9 24.3 32.2 24.3 34.9C24.3 38.5 23.15 41.45 20.85 43.75C18.55 46.05 15.7 47.2 12.3 47.2C8.7 47.2 5.75 46.05 3.45 43.75C1.15 41.45 4.24683e-07 38.5 4.24683e-07 34.9C4.24683e-07 33.1 0.2 31.35 0.600001 29.65C1.1 27.95 2 25.4 3.3 22L11.25 0.699993H23.25L17.25 23.65ZM58.4121 23.65C60.6121 24.55 62.3121 26 63.5121 28C64.8121 29.9 65.4621 32.2 65.4621 34.9C65.4621 38.5 64.3121 41.45 62.0121 43.75C59.7121 46.05 56.8621 47.2 53.4621 47.2C49.8621 47.2 46.9121 46.05 44.6121 43.75C42.3121 41.45 41.1621 38.5 41.1621 34.9C41.1621 33.1 41.3621 31.35 41.7621 29.65C42.2621 27.95 43.1621 25.4 44.4621 22L52.4121 0.699993H64.4121L58.4121 23.65Z" fill="#CF0000"/>
</svg>
