<svg width="111" height="123" viewBox="0 0 111 123" fill="none" xmlns="http://www.w3.org/2000/svg">
<path d="M76.2695 36.4062H60.6445L39.5508 84.1602L16.8945 36.4062H2.92969V38.9453H10.7422V92.4609H2.92969V95H22.4609C22.4609 93.5677 21.9401 92.7539 20.8984 92.5586C20.5729 92.4935 20.2474 92.4609 19.9219 92.4609H14.6484V50.4688L36.0352 95.4883H38.0859L60.6445 45.1953V92.4609H52.832V95H76.2695C76.2695 93.5677 75.7487 92.7539 74.707 92.5586C74.3815 92.4935 74.056 92.4609 73.7305 92.4609H68.457V38.9453H76.2695V36.4062Z" fill="white"/>
<rect x="30" y="40.9745" width="6.81198" height="6.37958" rx="1" fill="white"/>
<rect x="41.9211" y="40.9745" width="6.81198" height="6.37958" rx="1" fill="white"/>
<rect x="30" y="33" width="6.81198" height="6.37958" rx="1" fill="white"/>
<rect x="41.9207" y="33" width="6.81198" height="6.37958" rx="1" fill="white"/>
<path d="M14 40C23.4988 25.1601 36.7538 1.99999 38.3231 2C39.8923 2.00001 65 40 65 40" stroke="white" stroke-width="4"/>
</svg>
